<?xml version="1.0" encoding="utf-8"?>
<!-- Generator: Adobe Illustrator 22.1.0, SVG Export Plug-In . SVG Version: 6.00 Build 0)  -->
<svg fill="white" version="1.1" id="Layer_1" xmlns="http://www.w3.org/2000/svg" xmlns:xlink="http://www.w3.org/1999/xlink" x="0px" y="0px"
	 viewBox="0 0 32 32" style="enable-background:new 0 0 32 32;" xml:space="preserve">
<title>godot-engine</title>
<path d="M12.7,0.9c-1.5,0.3-2.9,0.8-4.3,1.5c0,1.2,0.1,2.3,0.3,3.5c-0.5,0.3-1.1,0.6-1.6,1c-0.5,0.4-1,0.8-1.5,1.2
	C4.8,7.5,3.9,7,2.9,6.5C1.8,7.6,0.8,8.8,0,10.2c0.6,1,1.2,1.9,1.9,2.8h0v8.5c0,0,0,0,0,0L7.2,22c0.3,0,0.5,0.2,0.5,0.5l0.2,2.3
	l4.5,0.3l0.3-2.1c0-0.3,0.3-0.5,0.6-0.5h5.5c0.3,0,0.5,0.2,0.6,0.5l0.3,2.1l4.5-0.3l0.2-2.3c0-0.3,0.2-0.5,0.5-0.5l5.2-0.5
	c0,0,0,0,0,0V13h0c0.7-0.9,1.3-1.8,1.9-2.8c-0.8-1.4-1.8-2.6-2.9-3.8c-1,0.5-1.9,1.1-2.8,1.7c-0.5-0.4-1-0.8-1.5-1.2
	c-0.5-0.4-1-0.7-1.6-1c0.2-1.2,0.2-2.3,0.3-3.5c-1.4-0.7-2.8-1.1-4.3-1.5c-0.6,1-1.1,2-1.6,3.1c-0.6-0.1-1.1-0.1-1.7-0.1h0
	c-0.6,0-1.1,0-1.7,0.1C13.9,3,13.3,1.9,12.7,0.9L12.7,0.9z M8.6,13.3c1.7,0,3.1,1.4,3.1,3.1s-1.4,3.1-3.1,3.1s-3.1-1.4-3.1-3.1
	S6.9,13.3,8.6,13.3z M23.4,13.3c1.7,0,3.1,1.4,3.1,3.1s-1.4,3.1-3.1,3.1s-3.1-1.4-3.1-3.1S21.6,13.3,23.4,13.3z M8.9,14.6
	c-1.1,0-2.1,0.9-2.1,2.1c0,1.1,0.9,2.1,2.1,2.1c1.2,0,2.1-0.9,2.1-2.1C11,15.5,10.1,14.6,8.9,14.6z M23.1,14.6
	c-1.1,0-2.1,0.9-2.1,2.1c0,1.1,0.9,2.1,2.1,2.1c1.2,0,2.1-0.9,2.1-2.1C25.1,15.5,24.2,14.6,23.1,14.6z M16,15.2c0.6,0,1,0.4,1,0.9
	V19c0,0.5-0.5,0.9-1,0.9s-1-0.4-1-0.9v-2.9C15,15.6,15.4,15.2,16,15.2z M1.9,22.6c0,0.5,0,1.1,0,1.2c0,4.9,6.3,7.3,14,7.3h0
	c7.8,0,14-2.4,14-7.3c0-0.1,0-0.7,0-1.2l-4.7,0.5l-0.2,2.3c0,0.3-0.2,0.5-0.5,0.5l-5.6,0.4c-0.3,0-0.5-0.2-0.6-0.5l-0.3-2.2h-4.5
	l-0.3,2.2c0,0.3-0.3,0.5-0.6,0.5l-5.5-0.4c-0.3,0-0.5-0.2-0.5-0.5l-0.2-2.3L1.9,22.6L1.9,22.6z"/>
</svg>
